<svg width="22" height="22" viewBox="0 0 22 22" fill="none" xmlns="http://www.w3.org/2000/svg">
<g id="Group">
<path id="Vector" d="M16.5 5.72205C18.37 5.72205 19.8 7.15205 19.8 9.02205V21.122H16.5V5.72205Z" fill="#F26B35"/>
<path id="Vector_2" fill-rule="evenodd" clip-rule="evenodd" d="M20.9 18.9221H15.4V3.30205C15.4 1.10205 13.42 -0.437948 11.33 0.112052L4.73 1.76205C3.19 2.09205 2.2 3.41205 2.2 4.95205V18.9221H1.1C0.44 18.9221 0 19.3621 0 20.0221C0 20.6821 0.44 21.1221 1.1 21.1221H2.2H15.4H20.9C21.56 21.1221 22 20.6821 22 20.0221C22 19.3621 21.56 18.9221 20.9 18.9221ZM7.7 5.72205H9.9C10.56 5.72205 11 6.16205 11 6.82205C11 7.48205 10.56 7.92205 9.9 7.92205H7.7C7.04 7.92205 6.6 7.48205 6.6 6.82205C6.6 6.16205 7.04 5.72205 7.7 5.72205ZM7.7 10.1221H9.9C10.56 10.1221 11 10.5621 11 11.2221C11 11.8821 10.56 12.3221 9.9 12.3221H7.7C7.04 12.3221 6.6 11.8821 6.6 11.2221C6.6 10.5621 7.04 10.1221 7.7 10.1221ZM7.7 14.5221H9.9C10.56 14.5221 11 14.9621 11 15.6221C11 16.2821 10.56 16.7221 9.9 16.7221H7.7C7.04 16.7221 6.6 16.2821 6.6 15.6221C6.6 14.9621 7.04 14.5221 7.7 14.5221Z" fill="#02B8CF"/>
</g>
</svg>
