<svg width="25" height="21" viewBox="0 0 25 21" fill="none" xmlns="http://www.w3.org/2000/svg">
<path d="M19.213 11.5741H14.5834C17.8241 11.5741 20.3704 14.1204 20.3704 17.3611V18.5185C20.3704 19.7917 19.3287 20.8334 18.0556 20.8334H22.6852C23.9584 20.8334 25 19.7917 25 18.5185V17.3611C25 14.1204 22.4537 11.5741 19.213 11.5741Z" fill="#B1D5EA"/>
<path d="M15.625 0C14.8148 0 14.0046 0.231482 13.3102 0.694444C14.6991 1.50463 15.625 3.00926 15.625 4.62963C15.625 6.25 14.6991 7.87037 13.3102 8.56481C14.0046 8.91204 14.8148 9.25926 15.625 9.25926C18.1713 9.25926 20.2546 7.17593 20.2546 4.62963C20.2546 2.08333 18.1713 0 15.625 0Z" fill="#B1D5EA"/>
<path d="M9.25927 9.25926C11.8161 9.25926 13.8889 7.1865 13.8889 4.62963C13.8889 2.07276 11.8161 0 9.25927 0C6.70239 0 4.62964 2.07276 4.62964 4.62963C4.62964 7.1865 6.70239 9.25926 9.25927 9.25926Z" fill="#7B9CAF"/>
<path d="M5.78704 11.5741C2.5463 11.5741 0 14.1204 0 17.3611V18.5185C0 19.7917 1.04167 20.8334 2.31481 20.8334H16.2037C17.4769 20.8334 18.5185 19.7917 18.5185 18.5185V17.3611C18.5185 14.1204 15.9722 11.5741 12.7315 11.5741H5.78704Z" fill="#7B9CAF"/>
</svg>
