<svg width="20" height="24" viewBox="0 0 20 24" fill="none" xmlns="http://www.w3.org/2000/svg">
<rect width="20" height="24" fill="#1E1E1E"/>
<g id="Profile - KYC" clip-path="url(#clip0_0_1)">
<rect width="1444" height="982" transform="translate(-49 -97)" fill="#F5FAFB"/>
<g id="Sidebar">
<rect id="Rectangle 6" x="-49" y="-97" width="276" height="982" fill="#12313A"/>
<g id="Group 3468">
<rect id="Rectangle 7" x="-13" y="-11" width="204" height="45" rx="7" fill="#12313A"/>
<g id="Group">
<path id="Vector" fill-rule="evenodd" clip-rule="evenodd" d="M19 7.05L12 0.75C10.9 -0.25 9.1 -0.25 8 0.75L1 7.05C0.4 7.55 0 8.35 0 9.25V16.95C0 18.65 1.3 19.95 3 19.95H6H7V13.95C7 12.85 7.9 11.95 9 11.95H11C12.1 11.95 13 12.85 13 13.95V19.95H14H17C18.7 19.95 20 18.65 20 16.95V9.25C20 8.35 19.6 7.55 19 7.05Z" fill="#7B9CAF"/>
<path id="Vector_2" d="M18.3 23.15H1.70002C1.30002 23.15 0.900024 22.85 0.900024 22.35V21.55C0.900024 21.15 1.20002 20.75 1.70002 20.75H18.2C18.6 20.75 19 21.05 19 21.55V22.35C19 22.85 18.7 23.15 18.3 23.15Z" fill="#B1D5EA"/>
</g>
</g>
</g>
</g>
<defs>
<clipPath id="clip0_0_1">
<rect width="1444" height="982" fill="white" transform="translate(-49 -97)"/>
</clipPath>
</defs>
</svg>
