<svg width="21" height="25" viewBox="0 0 21 25" fill="none" xmlns="http://www.w3.org/2000/svg">
<path d="M14.8825 4.2522V8.77011C14.8825 11.1619 12.8893 13.1551 10.4975 13.1551C8.10566 13.1551 6.24535 11.1619 6.24535 8.77011V4.2522C2.52471 5.97963 0 9.70027 0 13.9524C0 19.7991 4.78367 24.4499 10.4975 24.4499C16.2113 24.4499 20.995 19.6662 20.995 13.9524C21.1279 9.70027 18.6032 5.97963 14.8825 4.2522Z" fill="#7B9CAF"/>
<path d="M10.4974 11.2948C8.90283 11.2948 7.70691 9.96598 7.70691 8.5043V2.79047C7.70691 1.3288 9.03571 0 10.4974 0C12.0919 0 13.2879 1.3288 13.2879 2.79047V8.37142C13.4207 9.96598 12.0919 11.2948 10.4974 11.2948Z" fill="#B1D5EA"/>
</svg>
