<svg width="20" height="20" viewBox="0 0 20 20" fill="none" xmlns="http://www.w3.org/2000/svg">
<path d="M1.67151 6.6279C1.85917 5.12661 3.13538 4 4.64835 4H15.3517C16.8646 4 18.1408 5.12661 18.3285 6.6279L19.5785 16.6279C19.8023 18.4185 18.4061 20 16.6017 20H3.39835C1.59385 20 0.197693 18.4185 0.421513 16.6279L1.67151 6.6279Z" fill="#7B9CAF"/>
<path fill-rule="evenodd" clip-rule="evenodd" d="M6 4C6 1.79086 7.79086 0 10 0C12.2091 0 14 1.79086 14 4V6C14 6.55228 13.5523 7 13 7C12.4477 7 12 6.55228 12 6V4C12 2.89543 11.1046 2 10 2C8.89543 2 8 2.89543 8 4V6C8 6.55228 7.55228 7 7 7C6.44772 7 6 6.55228 6 6V4Z" fill="#B1D5EA"/>
</svg>
