<svg width="19" height="20" viewBox="0 0 19 20" fill="none" xmlns="http://www.w3.org/2000/svg">
<g id="Group">
<path id="Vector" d="M18.1043 4.34502C18.0137 3.89242 17.6517 3.62085 17.1991 3.62085H0.905213C0.452607 3.62085 0.0905213 3.89242 0 4.34502C0.0905213 3.8019 0.271564 3.34929 0.724171 2.89668L2.80616 0.814692C3.34929 0.271564 4.07346 0 4.70711 0H13.3066C14.0308 0 14.755 0.271564 15.2076 0.814692L17.2896 2.89668C17.8327 3.34929 18.0137 3.8019 18.1043 4.34502Z" fill="#B1D5EA"/>
<path id="Vector_2" d="M17.1991 4.61658H0.905213C0.362085 4.61658 0 4.97866 0 5.52179V16.3843C0 17.9232 1.17678 19.1 2.71564 19.1H15.3886C16.9275 19.1 18.1043 17.9232 18.1043 16.3843V5.52179C18.1043 5.06918 17.7422 4.61658 17.1991 4.61658ZM11.9488 13.3971L10.3194 15.0265C9.59526 15.7507 8.509 15.7507 7.78483 15.0265L6.15545 13.3971C5.79337 13.0351 5.79337 12.4919 6.15545 12.1298C6.51754 11.7678 7.06066 11.7678 7.42275 12.1298L8.14692 12.854V9.14264C8.14692 8.59952 8.509 8.23743 9.05213 8.23743C9.59526 8.23743 9.95735 8.59952 9.95735 9.14264V12.854L10.6815 12.1298C11.0436 11.7678 11.5867 11.7678 11.9488 12.1298C12.3109 12.4919 12.3109 13.0351 11.9488 13.3971Z" fill="#7B9CAF"/>
</g>
</svg>
