<svg width="16" height="13" viewBox="0 0 16 13" fill="none" xmlns="http://www.w3.org/2000/svg">
<path fill-rule="evenodd" clip-rule="evenodd" d="M0.16333 6.8074C0.16333 6.36799 0.55135 6.01177 1.03 6.01177L14.4633 6.01177C14.942 6.01177 15.33 6.36799 15.33 6.8074C15.33 7.24681 14.942 7.60303 14.4633 7.60303L1.03 7.60303C0.55135 7.60303 0.16333 7.24681 0.16333 6.8074Z" fill="white" fill-opacity="0.57"/>
<path fill-rule="evenodd" clip-rule="evenodd" d="M9.08392 12.5411C8.74546 12.2304 8.74546 11.7267 9.08392 11.4159L14.1044 6.80696L9.08392 2.19797C8.74546 1.88725 8.74546 1.38349 9.08392 1.07278C9.42237 0.762065 9.97112 0.762065 10.3096 1.07278L15.3301 5.68177C16.007 6.30319 16.007 7.31072 15.3301 7.93215L10.3096 12.5411C9.97112 12.8518 9.42237 12.8518 9.08392 12.5411Z" fill="white"/>
</svg>
