<svg width="20" height="20" viewBox="0 0 20 20" fill="none" xmlns="http://www.w3.org/2000/svg">
<g id="Group">
<path id="Vector" d="M20 5C20 5.3 19.9 5.7 19.8 6C19.4 4.8 18.3 4 17 4H3C1.7 4 0.6 4.8 0.2 6C0.1 5.7 0 5.3 0 5V3C0 1.3 1.3 0 3 0H5.8C6.6 0 7.4 0.3 7.9 0.9L9 2H17C17.8 2 18.6 2.3 19.1 2.9C19.6 3.5 20 4.2 20 5Z" fill="#B1D5EA"/>
<g id="Group_2">
<path id="Vector_2" d="M13.1 10.7C12.7 11.1 12.4 11.7 12.4 12.4C12.4 13.7 13.5 14.8 14.8 14.8H20V16.4C20 18.1 18.7 19.4 17 19.4H3C1.3 19.4 0 18.1 0 16.4V8.40002C0 6.70002 1.3 5.40002 3 5.40002H17C18.7 5.40002 20 6.70002 20 8.40002V10H14.8C14.1 10 13.5 10.2 13.1 10.7Z" fill="#7B9CAF"/>
<path id="Vector_3" d="M15 13.7C15.7179 13.7 16.3 13.1179 16.3 12.4C16.3 11.682 15.7179 11.1 15 11.1C14.282 11.1 13.7 11.682 13.7 12.4C13.7 13.1179 14.282 13.7 15 13.7Z" fill="#7B9CAF"/>
</g>
</g>
</svg>
