<svg width="24" height="24" viewBox="0 0 24 24" fill="none" xmlns="http://www.w3.org/2000/svg">
<path d="M15.3855 11.5596L11.5598 15.3853C11.2798 14.8254 10.9066 14.2656 10.44 13.799C9.97349 13.3325 9.50693 12.9592 8.85376 12.6793L12.6795 8.76025C12.9594 9.32012 13.3327 9.87998 13.7992 10.3465C14.2658 10.8131 14.8256 11.2796 15.3855 11.5596Z" fill="#B1D5EA"/>
<path d="M19.8643 1.85534C20.3308 1.38879 20.1442 0.642305 19.5843 0.455684C17.8114 0.082442 15.8519 0.548994 14.4523 1.94865C12.3061 4.09479 12.3061 7.64059 14.4523 9.88004C16.5984 12.0262 20.1442 12.0262 22.3836 9.88004C23.7833 8.48038 24.2499 6.52086 23.8766 4.74797C23.7833 4.09479 22.9435 4.00148 22.477 4.46803L20.984 5.961C20.2375 6.70749 19.1178 6.70749 18.3713 5.961C17.6248 5.21452 17.6248 4.09479 18.3713 3.34831L19.8643 1.85534Z" fill="#7B9CAF"/>
<path d="M4.46803 22.477C4.00148 22.9435 4.1881 23.69 4.74797 23.8766C6.52086 24.2499 8.48038 23.7833 9.88004 22.3836C12.0262 20.2375 12.0262 16.6917 9.88004 14.4523C7.7339 12.3061 4.1881 12.3061 1.94865 14.4523C0.548994 15.8519 0.082442 17.8114 0.455684 19.5843C0.548994 20.2375 1.38879 20.3308 1.85534 19.8643L3.34831 18.3713C4.09479 17.6248 5.21452 17.6248 5.961 18.3713C6.70749 19.1178 6.70749 20.2375 5.961 20.984L4.46803 22.477Z" fill="#7B9CAF"/>
</svg>
